<?xml version="1.0" encoding="UTF-8"?><svg xmlns="http://www.w3.org/2000/svg" xmlns:xlink="http://www.w3.org/1999/xlink" version="1.1" id="Layer_1" x="0px" y="0px" width="92px" height="92px" viewBox="0 0 92 92" xml:space="preserve"><path id="XMLID_1181_" d="M92 57c0 2.2-1.8 4-4 4H69.2c-1.7 0-3.2-.9-3.8-2.6l-3-8.4-9.8 33.1c-.5 1.7-2.1 2.9-3.8 2.9h-.1c-1.8-.1-3.4-1.3-3.8-3.1L32 27l-7.8 31.1c-.4 1.8-2 2.9-3.9 2.9H4c-2.2 0-4-1.8-4-4s1.8-4 4-4h13.2L28.3 8.9c.4-1.8 2.1-2.9 3.9-2.9 1.8 0 3.4 1.3 3.9 3.1l13.2 57.2 9-30.4c.5-1.7 2-2.9 3.7-2.9 1.7-.1 3.3 1 3.9 2.6L72 53h16c2.2 0 4 1.8 4 4z"/><metadata><rdf:RDF xmlns:rdf="http://www.w3.org/1999/02/22-rdf-syntax-ns#" xmlns:rdfs="http://www.w3.org/2000/01/rdf-schema#" xmlns:dc="http://purl.org/dc/elements/1.1/"><rdf:Description about="https://iconscout.com/legal#licenses" dc:title="pulse" dc:description="pulse" dc:publisher="Iconscout" dc:date="2017-09-24" dc:format="image/svg+xml" dc:language="en"><dc:creator><rdf:Bag><rdf:li>Amit Jakhu</rdf:li></rdf:Bag></dc:creator></rdf:Description></rdf:RDF></metadata></svg>