<svg xmlns="http://www.w3.org/2000/svg" width="16" height="16" viewBox="0 0 16 16"><path d="M 8 0 C 6.3466486 0 5 1.3467 5 3 L 5 8 C 5 9.6534 6.3466486 11 8 11 C 9.6533514 11 11 9.6534 11 8 L 11 3 C 11 1.3467 9.6533514 0 8 0 z M 8 1 C 9.1166486 1 10 1.8834 10 3 L 10 8 C 10 9.1167 9.1166486 10 8 10 C 6.8833514 10 6 9.1167 6 8 L 6 3 C 6 1.8834 6.8833514 1 8 1 z M 3 8.1523438 C 3 10.664833 4.9849527 12.690096 7.5 12.935547 L 7.5 14.984375 L 7.5 15 L 5.5 15 L 5.5 16 L 10.5 16 L 10.5 15 L 8.5 15 L 8.5 14.984375 L 8.5 12.935547 C 11.015048 12.690096 13 10.664833 13 8.1523438 L 12 8.1523438 C 12 10.274344 10.234596 11.984375 8 11.984375 C 5.7654035 11.984375 4 10.274344 4 8.1523438 L 3 8.1523438 z " color="#000" font-family="sans-serif" font-weight="400" overflow="visible" white-space="normal" style="line-height:normal;text-indent:0;text-align:start;text-decoration-line:none;text-decoration-style:solid;text-decoration-color:#000;text-transform:none;block-progression:tb;isolation:auto;mix-blend-mode:normal"/></svg>